<svg xmlns="http://www.w3.org/2000/svg" xmlns:xlink="http://www.w3.org/1999/xlink" width="1080" zoomAndPan="magnify" viewBox="0 0 810 809.999993" height="1080" preserveAspectRatio="xMidYMid meet" version="1.0"><defs><g/></defs><g fill="#d0c3f1" fill-opacity="1"><g transform="translate(121.622772, 459.885546)"><g><path d="M 51.765625 2.660156 C 83.671875 2.660156 97.855469 -11.878906 97.855469 -33.328125 C 97.855469 -53.359375 87.042969 -62.578125 67.894531 -67.71875 L 46.621094 -73.035156 C 31.730469 -76.9375 26.058594 -81.722656 26.058594 -92.359375 C 26.058594 -102.996094 33.503906 -110.265625 53.359375 -110.265625 C 68.605469 -110.265625 83.671875 -106.894531 90.941406 -104.238281 L 90.230469 -121.078125 C 83.671875 -123.382812 68.960938 -126.574219 51.941406 -126.574219 C 21.449219 -126.574219 7.621094 -112.390625 7.621094 -92.003906 C 7.621094 -72.683594 17.550781 -62.933594 36.339844 -57.96875 L 58.144531 -52.472656 C 73.035156 -48.574219 79.242188 -43.785156 79.242188 -32.972656 C 79.242188 -21.09375 71.265625 -13.648438 50.878906 -13.648438 C 34.035156 -13.648438 17.019531 -17.90625 8.6875 -21.09375 L 11.34375 -3.367188 C 18.4375 -0.886719 34.214844 2.660156 51.765625 2.660156 Z M 51.765625 2.660156 "/></g></g></g><g fill="#d0c3f1" fill-opacity="1"><g transform="translate(225.495724, 459.885546)"><g><path d="M 36.164062 1.773438 C 51.054688 1.773438 59.742188 -3.367188 63.816406 -12.054688 L 66.476562 0 L 80.835938 0 L 80.835938 -56.90625 C 80.835938 -78.710938 70.378906 -90.941406 44.671875 -90.941406 C 32.796875 -90.941406 21.449219 -89.167969 16.132812 -87.925781 L 13.472656 -72.503906 C 19.324219 -74.101562 31.023438 -76.050781 41.660156 -76.050781 C 58.324219 -76.050781 63.816406 -70.023438 63.816406 -56.90625 L 63.816406 -51.941406 L 37.757812 -51.941406 C 17.019531 -51.941406 6.203125 -42.191406 6.203125 -26.058594 C 6.203125 -9.039062 16.488281 1.773438 36.164062 1.773438 Z M 39.886719 -11.699219 C 28.363281 -11.699219 23.222656 -17.019531 23.222656 -26.058594 C 23.222656 -34.921875 28.363281 -39.886719 40.59375 -39.886719 L 63.816406 -39.886719 L 63.816406 -33.683594 C 63.816406 -17.90625 55.308594 -11.699219 39.886719 -11.699219 Z M 39.886719 -11.699219 "/></g></g></g><g fill="#d0c3f1" fill-opacity="1"><g transform="translate(318.733217, 459.885546)"><g><path d="M 51.230469 -13.296875 C 40.59375 -13.296875 34.921875 -18.257812 34.921875 -32.972656 L 34.921875 -75.519531 L 66.476562 -75.519531 L 66.476562 -89.878906 L 34.921875 -89.878906 L 34.921875 -111.503906 L 17.90625 -107.605469 L 17.90625 -89.878906 L 3.191406 -89.878906 L 3.191406 -75.519531 L 17.90625 -75.519531 L 17.90625 -32.972656 C 17.90625 -8.863281 29.605469 1.773438 48.394531 1.773438 C 56.550781 1.773438 62.933594 -0.175781 65.414062 -1.59375 L 67.894531 -16.488281 C 64.882812 -15.246094 58.144531 -13.296875 51.230469 -13.296875 Z M 51.230469 -13.296875 "/></g></g></g><g fill="#ff66c4" fill-opacity="1"><g transform="translate(389.807275, 459.885546)"><g><path d="M 57.4375 -91.472656 C 43.609375 -91.472656 35.453125 -86.507812 30.3125 -78.175781 L 30.3125 -125.6875 L 13.296875 -123.027344 L 13.296875 0 L 30.3125 0 L 30.3125 -51.054688 C 30.3125 -67.363281 35.988281 -76.226562 52.472656 -76.226562 C 67.542969 -76.226562 73.035156 -67.363281 73.035156 -51.054688 L 73.035156 0 L 90.054688 0 L 90.054688 -54.953125 C 90.054688 -76.582031 79.59375 -91.472656 57.4375 -91.472656 Z M 57.4375 -91.472656 "/></g></g></g><g fill="#ff66c4" fill-opacity="1"><g transform="translate(492.262172, 459.885546)"><g><path d="M 13.472656 -103.171875 L 30.492188 -103.171875 L 30.492188 -122.496094 L 13.472656 -122.496094 Z M 13.472656 0 L 30.492188 0 L 30.492188 -89.878906 L 13.472656 -89.878906 Z M 13.472656 0 "/></g></g></g><g fill="#ff66c4" fill-opacity="1"><g transform="translate(536.399321, 459.885546)"><g><path d="M 40.59375 1.949219 C 66.121094 1.949219 77.113281 -8.15625 77.113281 -24.996094 C 77.113281 -39.886719 70.554688 -47.507812 52.648438 -51.230469 L 38.113281 -54.066406 C 27.65625 -56.019531 24.464844 -59.210938 24.464844 -65.589844 C 24.464844 -72.328125 29.960938 -76.757812 45.914062 -76.757812 C 57.96875 -76.757812 68.074219 -73.921875 72.503906 -71.796875 L 71.441406 -87.21875 C 66.65625 -88.992188 56.019531 -91.472656 44.140625 -91.472656 C 19.144531 -91.472656 7.976562 -81.367188 7.976562 -65.058594 C 7.976562 -50.878906 14.535156 -43.078125 31.910156 -39.53125 L 46.800781 -36.519531 C 57.613281 -34.390625 60.449219 -31.378906 60.449219 -24.640625 C 60.449219 -17.550781 54.953125 -12.761719 39.355469 -12.761719 C 26.238281 -12.761719 13.648438 -16.132812 7.976562 -18.613281 L 10.636719 -3.011719 C 15.953125 -0.886719 27.832031 1.949219 40.59375 1.949219 Z M 40.59375 1.949219 "/></g></g></g><g fill="#ff66c4" fill-opacity="1"><g transform="translate(620.242175, 459.885546)"><g><path d="M 57.4375 -91.472656 C 43.609375 -91.472656 35.453125 -86.507812 30.3125 -78.175781 L 30.3125 -125.6875 L 13.296875 -123.027344 L 13.296875 0 L 30.3125 0 L 30.3125 -51.054688 C 30.3125 -67.363281 35.988281 -76.226562 52.472656 -76.226562 C 67.542969 -76.226562 73.035156 -67.363281 73.035156 -51.054688 L 73.035156 0 L 90.054688 0 L 90.054688 -54.953125 C 90.054688 -76.582031 79.59375 -91.472656 57.4375 -91.472656 Z M 57.4375 -91.472656 "/></g></g></g><g fill="#ffffff" fill-opacity="1"><g transform="translate(722.688116, 459.885546)"><g><path d="M 11.167969 0 L 30.84375 0 L 30.84375 -22.160156 L 11.167969 -22.160156 Z M 11.167969 0 "/></g></g></g></svg>